{
    "asset" : {
        "generator" : "Khronos glTF Blender I/O v1.6.16",
        "version" : "2.0"
    },
    "scene" : 0,
    "scenes" : [
        {
            "name" : "Scene",
            "nodes" : [
                0
            ]
        }
    ],
    "nodes" : [
        {
            "mesh" : 0,
            "name" : "Text.001"
        }
    ],
    "materials" : [
        {
            "doubleSided" : true,
            "name" : "White",
            "pbrMetallicRoughness" : {
                "baseColorFactor" : [
                    0.800000011920929,
                    0.800000011920929,
                    0.800000011920929,
                    1
                ],
                "metallicFactor" : 0,
                "roughnessFactor" : 0.5
            }
        },
        {
            "doubleSided" : true,
            "name" : "Purple",
            "pbrMetallicRoughness" : {
                "baseColorFactor" : [
                    0.5764706134796143,
                    0.24705882370471954,
                    0.5764706134796143,
                    1
                ],
                "metallicFactor" : 0,
                "roughnessFactor" : 0.5
            }
        }
    ],
    "meshes" : [
        {
            "name" : "Text.001",
            "primitives" : [
                {
                    "attributes" : {
                        "POSITION" : 0,
                        "NORMAL" : 1,
                        "TEXCOORD_0" : 2
                    },
                    "indices" : 3,
                    "material" : 0
                },
                {
                    "attributes" : {
                        "POSITION" : 4,
                        "NORMAL" : 5,
                        "TEXCOORD_0" : 6
                    },
                    "indices" : 7,
                    "material" : 1
                }
            ]
        }
    ],
    "accessors" : [
        {
            "bufferView" : 0,
            "componentType" : 5126,
            "count" : 597,
            "max" : [
                1.5434749126434326,
                0.3681860864162445,
                -0.24782931804656982
            ],
            "min" : [
                -1.4570001363754272,
                -0.38184642791748047,
                -0.47282901406288147
            ],
            "type" : "VEC3"
        },
        {
            "bufferView" : 1,
            "componentType" : 5126,
            "count" : 597,
            "type" : "VEC3"
        },
        {
            "bufferView" : 2,
            "componentType" : 5126,
            "count" : 597,
            "type" : "VEC2"
        },
        {
            "bufferView" : 3,
            "componentType" : 5123,
            "count" : 1470,
            "type" : "SCALAR"
        },
        {
            "bufferView" : 4,
            "componentType" : 5126,
            "count" : 1050,
            "max" : [
                1.5434749126434326,
                0.3681860864162445,
                -0.21921707689762115
            ],
            "min" : [
                -1.4570001363754272,
                -0.38184642791748047,
                -0.2478293776512146
            ],
            "type" : "VEC3"
        },
        {
            "bufferView" : 5,
            "componentType" : 5126,
            "count" : 1050,
            "type" : "VEC3"
        },
        {
            "bufferView" : 6,
            "componentType" : 5126,
            "count" : 1050,
            "type" : "VEC2"
        },
        {
            "bufferView" : 7,
            "componentType" : 5123,
            "count" : 4458,
            "type" : "SCALAR"
        }
    ],
    "bufferViews" : [
        {
            "buffer" : 0,
            "byteLength" : 7164,
            "byteOffset" : 0
        },
        {
            "buffer" : 0,
            "byteLength" : 7164,
            "byteOffset" : 7164
        },
        {
            "buffer" : 0,
            "byteLength" : 4776,
            "byteOffset" : 14328
        },
        {
            "buffer" : 0,
            "byteLength" : 2940,
            "byteOffset" : 19104
        },
        {
            "buffer" : 0,
            "byteLength" : 12600,
            "byteOffset" : 22044
        },
        {
            "buffer" : 0,
            "byteLength" : 12600,
            "byteOffset" : 34644
        },
        {
            "buffer" : 0,
            "byteLength" : 8400,
            "byteOffset" : 47244
        },
        {
            "buffer" : 0,
            "byteLength" : 8916,
            "byteOffset" : 55644
        }
    ],
    "buffers" : [
        {
            "byteLength" : 64560,
            "uri" : "mesta.bin"
        }
    ]
}
